<svg width="300" height="260" viewBox="0 0 370 300" fill="none" xmlns="http://www.w3.org/2000/svg">
<path d="M358.596 50.5798L240.609 27.5017L205.126 210.54L322.103 238.666C329.892 240.109 337.393 234.628 338.979 226.262L369.702 68.4653C371.289 60.0995 366.385 52.1664 358.596 50.5798Z" fill="url(#paint0_linear_13_3545)"/>
<path d="M122.478 4.56823L240.465 27.6463L205.126 209.53L85.8413 192.799C78.0524 191.356 73.1483 183.279 74.7349 174.913L105.602 16.8285C107.189 8.46265 114.833 2.98161 122.478 4.56823Z" fill="url(#paint1_linear_13_3545)"/>
<path d="M76.4647 185.587C78.484 189.193 81.8015 191.933 85.9844 192.799L322.103 238.955C326.286 239.82 330.469 238.522 333.642 235.926L226.905 98.1785L76.4647 185.587Z" fill="url(#paint2_linear_13_3545)"/>
<path d="M368.113 57.7919C366.094 54.1859 362.776 51.4454 358.594 50.58L122.475 4.4238C118.292 3.55838 114.109 4.85652 110.936 7.4528L217.673 145.2L368.113 57.7919Z" fill="url(#paint3_linear_13_3545)"/>
<path d="M289.936 122.122C289.936 121.978 289.792 121.833 289.792 121.689C289.792 121.545 289.648 121.545 289.648 121.401C289.648 121.257 289.504 121.257 289.504 121.112C288.061 117.651 285.753 114.766 283.013 113.179L282.292 112.746L186.085 57.2148L89.8775 1.6832L89.1563 1.25049C86.4158 -0.336133 83.5311 -0.336133 81.2232 0.817771C81.2232 0.817771 81.079 0.817771 81.079 0.962009C81.079 0.962009 80.9348 0.962009 80.9348 1.10625L68.2418 8.46239L75.3095 11.3471L49.9235 146.065C49.2023 149.527 49.7793 153.422 51.3659 156.883C51.3659 157.028 51.5101 157.028 51.5101 157.172C51.5101 157.316 51.6544 157.316 51.6544 157.46C53.0967 160.922 55.4046 163.807 58.1451 165.393L249.982 276.312L248.251 284.822L260.223 277.899C260.223 277.899 260.367 277.899 260.367 277.755C262.675 276.457 264.55 274.005 265.127 270.543L291.234 132.507C291.811 129.19 291.234 125.439 289.936 122.122Z" fill="white"/>
<path d="M239.597 284.678L45.4524 172.605C39.5387 169.288 36.0769 160.057 37.5193 152.268L63.1938 16.2513C64.6362 8.46245 70.6942 4.8565 76.4637 8.17397L270.609 120.391C276.522 123.709 279.984 132.94 278.542 140.729L252.867 276.745C251.425 284.534 245.367 288.14 239.597 284.678Z" fill="url(#paint4_linear_13_3545)"/>
<path d="M269.742 119.958L173.535 64.4267L143.39 224.242L238.731 284.245C245.078 287.851 251.28 284.967 252.578 277.611L278.685 139.719C280.128 132.363 276.089 123.564 269.742 119.958Z" fill="url(#paint5_linear_13_3545)"/>
<path d="M77.3303 8.75098L173.537 64.2826L143.536 223.233L46.3191 173.182C39.9726 169.576 36.0781 160.634 37.3763 153.422L63.3392 15.3859C64.7816 8.02979 70.9838 5.14503 77.3303 8.75098Z" fill="url(#paint6_linear_13_3545)"/>
<path d="M38.529 163.663C40.1156 167.557 42.8562 171.163 46.1736 173.038L238.732 284.246C242.194 286.265 245.511 286.265 248.107 284.678L161.853 125.728L38.529 163.663Z" fill="url(#paint7_linear_13_3545)"/>
<path d="M277.532 129.334C275.946 125.439 273.205 121.833 269.888 119.958L77.3293 8.75084C73.8676 6.7315 70.5501 6.7315 67.9538 8.31812L154.064 167.124L277.532 129.334Z" fill="url(#paint8_linear_13_3545)"/>
<path d="M69.9735 241.262L74.0122 247.32C77.6181 241.407 83.5319 235.781 91.7535 231.021C120.745 214.29 167.767 214.29 196.759 231.021C204.836 235.637 210.606 241.118 214.212 246.888L218.539 241.262V254.244C218.828 265.494 211.616 276.601 196.759 285.255C167.767 301.986 120.745 301.986 91.7535 285.255C77.1854 276.889 69.9735 265.927 69.9735 254.965V241.262V241.262Z" fill="#F4A856"/>
<path d="M144.255 284.101C103.23 284.101 69.972 264.922 69.972 241.262C69.972 217.603 103.23 198.424 144.255 198.424C185.28 198.424 218.538 217.603 218.538 241.262C218.538 264.922 185.28 284.101 144.255 284.101Z" fill="#FCCC6B"/>
<path d="M144.255 284.101C103.23 284.101 69.972 264.922 69.972 241.262C69.972 217.603 103.23 198.424 144.255 198.424C185.28 198.424 218.538 217.603 218.538 241.262C218.538 264.922 185.28 284.101 144.255 284.101Z" fill="url(#paint9_radial_13_3545)"/>
<path d="M144.257 277.755C160.411 277.755 176.422 274.149 188.682 267.081C200.654 260.158 207.289 250.926 207.289 241.118C207.289 231.31 200.654 222.079 188.682 215.155C164.162 201.02 124.352 201.02 99.8312 215.155C87.8594 222.079 81.2244 231.31 81.2244 241.118C81.2244 250.926 87.8594 260.158 99.8312 267.081C112.091 274.293 128.102 277.755 144.257 277.755ZM144.257 205.78C160.123 205.78 175.989 209.242 188.105 216.165C199.644 222.8 205.991 231.743 205.991 241.118C205.991 250.494 199.644 259.292 188.105 266.071C164.017 280.063 124.64 280.063 100.552 266.071C89.0133 259.436 82.6668 250.494 82.6668 241.118C82.6668 231.743 89.0133 222.944 100.552 216.165C112.524 209.386 128.39 205.78 144.257 205.78Z" fill="#F4A856"/>
<path d="M144.258 277.322C109.844 277.322 81.9466 261.177 81.9466 241.262C81.9466 221.347 109.844 205.203 144.258 205.203C178.671 205.203 206.569 221.347 206.569 241.262C206.569 261.177 178.671 277.322 144.258 277.322Z" fill="url(#paint10_radial_13_3545)"/>
<path d="M188.248 218.761C163.872 204.77 124.351 204.77 100.118 218.761C88.5794 225.396 82.5214 234.051 81.9444 242.705C81.2232 233.041 87.2812 223.233 100.118 215.732C124.495 201.741 164.016 201.741 188.248 215.732C201.085 223.089 207.143 233.041 206.422 242.705C205.845 234.051 199.787 225.396 188.248 218.761Z" fill="#F4A856"/>
<path d="M91.752 268.668C120.744 285.399 167.766 285.399 196.758 268.668C210.604 260.59 217.816 250.205 218.393 239.82C219.115 251.215 211.758 262.898 196.758 271.552C167.766 288.284 120.744 288.284 91.752 271.552C76.6069 262.754 69.395 251.215 70.1162 239.82C70.5489 250.349 77.7609 260.734 91.752 268.668Z" fill="#FCE586"/>
<path d="M12.7134 258.283L18.4829 262.898C20.0695 256.119 24.1082 249.051 30.4547 242.128C53.1001 217.463 98.1025 203.472 130.7 210.828C139.787 212.848 146.855 216.309 152.048 220.781L154.5 214.146L158.394 226.55C162 237.08 158.394 250.061 146.855 262.61C124.21 287.274 79.2073 301.266 46.6094 293.909C30.3105 290.303 20.0695 281.938 16.752 271.408L12.7134 258.283Z" fill="#F4A856"/>
<path d="M12.7619 258.352C5.71379 235.767 31.7478 207.551 70.9105 195.33C110.073 183.108 147.534 191.51 154.583 214.095C161.631 236.68 135.597 264.896 96.4339 277.117C57.2712 289.339 19.81 280.937 12.7619 258.352Z" fill="#FCCC6B"/>
<path d="M42.5706 280.784C75.3127 288.14 120.171 274.149 142.816 249.484C165.462 224.82 157.384 199.001 124.787 191.645C92.0444 184.289 47.1862 198.28 24.5408 222.945C1.89538 247.609 9.82849 273.428 42.5706 280.784Z" fill="url(#paint11_radial_13_3545)"/>
<path d="M64.7813 275.88C89.7345 275.88 118.15 264.774 133.872 247.753C143.247 237.513 146.853 226.839 143.824 217.464C140.939 208.088 131.852 201.165 118.294 198.136C90.7442 191.933 52.6652 203.761 33.4815 224.531C24.106 234.772 20.5001 245.446 23.5291 254.821C26.4139 264.197 35.5009 271.12 49.0593 274.149C53.9634 275.447 59.3002 275.88 64.7813 275.88ZM102.572 197.703C107.909 197.703 113.245 198.28 118.005 199.29C130.987 202.174 139.785 208.809 142.526 217.752C145.266 226.695 141.805 237.08 132.862 246.888C113.967 267.37 76.4646 279.053 49.2035 272.995C36.2221 270.11 27.4235 263.475 24.683 254.533C21.9425 245.59 25.4042 235.205 34.347 225.397C49.9247 208.665 77.907 197.703 102.572 197.703Z" fill="#F4A856"/>
<path d="M49.2035 273.716C76.6088 279.918 114.399 268.091 133.439 247.465C152.478 226.839 145.699 205.059 118.294 198.857C90.8884 192.654 53.0979 204.482 34.0584 225.108C14.8747 245.734 21.6539 267.514 49.2035 273.716Z" fill="url(#paint12_radial_13_3545)"/>
<path d="M119.017 201.597C91.6118 195.395 53.8213 207.223 34.7818 227.849C25.6948 237.657 22.5215 247.609 24.5409 256.119C20.9349 247.032 23.8197 235.926 33.9164 224.964C52.9559 204.338 90.6021 192.51 118.152 198.713C132.575 202.03 141.374 209.53 143.538 219.05C140.364 210.973 131.999 204.482 119.017 201.597Z" fill="#F4A856"/>
<path d="M41.7044 278.043C74.4466 285.399 119.305 271.408 141.95 246.744C152.768 234.916 156.662 222.944 154.066 212.703C158.105 223.377 154.643 236.647 142.816 249.484C120.17 274.149 75.1678 288.14 42.5699 280.784C25.5497 276.889 15.1646 268.091 12.4241 256.985C16.03 266.793 26.1267 274.582 41.7044 278.043Z" fill="#FCE586"/>
<defs>
<linearGradient id="paint0_linear_13_3545" x1="382.058" y1="334.137" x2="234.193" y2="144.46" gradientUnits="userSpaceOnUse">
<stop offset="0.7677" stop-color="#59BDEF"/>
<stop offset="0.8452" stop-color="#55B8EB"/>
<stop offset="0.9318" stop-color="#49ABE1"/>
<stop offset="1" stop-color="#3A9BD5"/>
</linearGradient>
<linearGradient id="paint1_linear_13_3545" x1="-5.38679" y1="258.229" x2="202.553" y2="137.948" gradientUnits="userSpaceOnUse">
<stop offset="0.7677" stop-color="#59BDEF"/>
<stop offset="0.8452" stop-color="#55B8EB"/>
<stop offset="0.9318" stop-color="#49ABE1"/>
<stop offset="1" stop-color="#3A9BD5"/>
</linearGradient>
<linearGradient id="paint2_linear_13_3545" x1="167.807" y1="402.632" x2="221.922" y2="125.454" gradientUnits="userSpaceOnUse">
<stop offset="0.7677" stop-color="#3A9BD5"/>
<stop offset="0.8386" stop-color="#3896D2"/>
<stop offset="0.9179" stop-color="#3189C9"/>
<stop offset="1" stop-color="#2573BA"/>
</linearGradient>
<linearGradient id="paint3_linear_13_3545" x1="160.03" y1="-29.2858" x2="386.121" y2="123.486" gradientUnits="userSpaceOnUse">
<stop stop-color="#7BDAFF"/>
<stop offset="1" stop-color="#59BDEF"/>
</linearGradient>
<linearGradient id="paint4_linear_13_3545" x1="50.3746" y1="84.3325" x2="280.941" y2="127.825" gradientUnits="userSpaceOnUse">
<stop stop-color="#7BDAFF"/>
<stop offset="1" stop-color="#59BDEF"/>
</linearGradient>
<linearGradient id="paint5_linear_13_3545" x1="287.123" y1="390.221" x2="170.343" y2="169.685" gradientUnits="userSpaceOnUse">
<stop offset="0.7677" stop-color="#59BDEF"/>
<stop offset="0.8452" stop-color="#55B8EB"/>
<stop offset="0.9318" stop-color="#49ABE1"/>
<stop offset="1" stop-color="#3A9BD5"/>
</linearGradient>
<linearGradient id="paint6_linear_13_3545" x1="-28.7478" y1="207.52" x2="134.283" y2="138.254" gradientUnits="userSpaceOnUse">
<stop offset="0.7677" stop-color="#59BDEF"/>
<stop offset="0.8452" stop-color="#55B8EB"/>
<stop offset="0.9318" stop-color="#49ABE1"/>
<stop offset="1" stop-color="#3A9BD5"/>
</linearGradient>
<linearGradient id="paint7_linear_13_3545" x1="111.752" y1="391.857" x2="228.022" y2="190.555" gradientUnits="userSpaceOnUse">
<stop offset="0.7677" stop-color="#3A9BD5"/>
<stop offset="0.8386" stop-color="#3896D2"/>
<stop offset="0.9179" stop-color="#3189C9"/>
<stop offset="1" stop-color="#2573BA"/>
</linearGradient>
<linearGradient id="paint8_linear_13_3545" x1="108.134" y1="-11.7854" x2="324.41" y2="152.715" gradientUnits="userSpaceOnUse">
<stop stop-color="#7BDAFF"/>
<stop offset="1" stop-color="#59BDEF"/>
</linearGradient>
<radialGradient id="paint9_radial_13_3545" cx="0" cy="0" r="1" gradientUnits="userSpaceOnUse" gradientTransform="translate(192.771 223.898) rotate(180) scale(88.8718 88.8716)">
<stop stop-color="#FCE586"/>
<stop offset="0.2273" stop-color="#FCDB7B"/>
<stop offset="0.6161" stop-color="#FCD06F"/>
<stop offset="1" stop-color="#FCCC6B"/>
</radialGradient>
<radialGradient id="paint10_radial_13_3545" cx="0" cy="0" r="1" gradientUnits="userSpaceOnUse" gradientTransform="translate(174.023 290.729) rotate(180) scale(187.226 187.225)">
<stop stop-color="#FCE586"/>
<stop offset="0.2273" stop-color="#FCDB7B"/>
<stop offset="0.6161" stop-color="#FCD06F"/>
<stop offset="1" stop-color="#FCCC6B"/>
</radialGradient>
<radialGradient id="paint11_radial_13_3545" cx="0" cy="0" r="1" gradientUnits="userSpaceOnUse" gradientTransform="translate(117.56 200.157) rotate(180) scale(106.088 106.088)">
<stop stop-color="#FCE586"/>
<stop offset="0.2273" stop-color="#FCDB7B"/>
<stop offset="0.6161" stop-color="#FCD06F"/>
<stop offset="1" stop-color="#FCCC6B"/>
</radialGradient>
<radialGradient id="paint12_radial_13_3545" cx="0" cy="0" r="1" gradientUnits="userSpaceOnUse" gradientTransform="translate(66.1127 295.113) rotate(180) scale(252.366 252.365)">
<stop stop-color="#FCE586"/>
<stop offset="0.2273" stop-color="#FCDB7B"/>
<stop offset="0.6161" stop-color="#FCD06F"/>
<stop offset="1" stop-color="#FCCC6B"/>
</radialGradient>
</defs>
</svg>
